{
  "source": "C:\\Users\\Peter\\Desktop\\stuff\\MIUN\\quantitative_research\\video_compression\\videos\\BVI-HD\\BVI-HD_CDVL_videos\\ORIG\\KineticFastPainting_1920x1080_60fps.mp4",
  "output": "C:\\Users\\Peter\\Desktop\\stuff\\MIUN\\quantitative_research\\video_compression\\compressed_videos\\BVI-HD\\vp9\\1\\KineticFastPainting_1920x1080_60fps_vp9.webm",
  "codec": "vp9",
  "ok": "Input #0, mov,mp4,m4a,3gp,3g2,mj2, from 'C:\\Users\\Peter\\Desktop\\stuff\\MIUN\\quantitative_research\\video_compression\\videos\\BVI-HD\\BVI-HD_CDVL_videos\\ORIG\\KineticFastPainting_1920x1080_60fps.mp4':\n  Metadata:\n    major_brand     : isom\n    minor_version   : 512\n    compatible_brands: isomiso2avc1mp41\n    encoder         : Lavf54.28.101\n  Duration: 00:00:05.00, start: 0.000000, bitrate: 477980 kb/s\n  Stream #0:0[0x1](und): Video: h264 (High 4:4:4 Predictive) (avc1 / 0x31637661), yuv420p(progressive), 1920x1080, 477974 kb/s, 60 fps, 60 tbr, 60 tbn (default)\n    Metadata:\n      handler_name    : VideoHandler\n      vendor_id       : [0][0][0][0]\n[out#0/webm @ 0000019898ff9100] Codec AVOption b:a (set bitrate (in bits/s)) has not been used for any stream. The most likely reason is either wrong type (e.g. a video option with no video streams) or that it is a private option of some decoder which was not actually used for any stream.\nStream mapping:\n  Stream #0:0 -> #0:0 (h264 (native) -> vp9 (libvpx-vp9))\nPress [q] to stop, [?] for help\n[libvpx-vp9 @ 000001989b0d00c0] v1.15.2-100-g40561f514\nOutput #0, webm, to 'C:\\Users\\Peter\\Desktop\\stuff\\MIUN\\quantitative_research\\video_compression\\compressed_videos\\BVI-HD\\vp9\\1\\KineticFastPainting_1920x1080_60fps_vp9.webm':\n  Metadata:\n    major_brand     : isom\n    minor_version   : 512\n    compatible_brands: isomiso2avc1mp41\n    encoder         : Lavf62.3.100\n  Stream #0:0(und): Video: vp9, yuv420p(tv, progressive), 1920x1080, q=2-31, 1000 kb/s, 60 fps, 1k tbn (default)\n    Metadata:\n      encoder         : Lavc62.11.100 libvpx-vp9\n      handler_name    : VideoHandler\n      vendor_id       : [0][0][0][0]\n    Side data:\n      cpb: bitrate max/min/avg: 0/0/0 buffer size: 1000000 vbv_delay: N/A\nframe=    0 fps=0.0 q=0.0 size=       0KiB time=N/A bitrate=N/A speed=N/A elapsed=0:00:00.54    \nframe=    6 fps=5.3 q=63.0 size=       1KiB time=00:00:00.10 bitrate=  50.6kbits/s speed=0.0877x elapsed=0:00:01.14    \nframe=   12 fps=7.2 q=63.0 size=       1KiB time=00:00:00.20 bitrate=  25.3kbits/s speed=0.119x elapsed=0:00:01.67    \nframe=   17 fps=7.6 q=63.0 size=       1KiB time=00:00:00.28 bitrate=  17.9kbits/s speed=0.126x elapsed=0:00:02.24    \nframe=   22 fps=7.9 q=63.0 size=       1KiB time=00:00:00.36 bitrate=  13.8kbits/s speed=0.132x elapsed=0:00:02.78    \nframe=   26 fps=7.8 q=63.0 size=       1KiB time=00:00:00.43 bitrate=  11.7kbits/s speed=0.129x elapsed=0:00:03.34    \nframe=   30 fps=7.6 q=63.0 size=       1KiB time=00:00:00.50 bitrate=  10.1kbits/s speed=0.127x elapsed=0:00:03.94    \nframe=   33 fps=7.2 q=63.0 size=       1KiB time=00:00:00.53 bitrate=   9.5kbits/s speed=0.116x elapsed=0:00:04.58    \nframe=   36 fps=7.0 q=63.0 size=       1KiB time=00:00:00.58 bitrate=   8.7kbits/s speed=0.114x elapsed=0:00:05.12    \nframe=   37 fps=6.5 q=56.0 size=       1KiB time=00:00:00.61 bitrate=   8.2kbits/s speed=0.109x elapsed=0:00:05.67    \nframe=   41 fps=6.6 q=63.0 size=       1KiB time=00:00:00.66 bitrate=   7.6kbits/s speed=0.107x elapsed=0:00:06.21    \nframe=   42 fps=6.2 q=63.0 size=       1KiB time=00:00:00.70 bitrate=   7.2kbits/s speed=0.103x elapsed=0:00:06.81    \nframe=   46 fps=6.3 q=63.0 size=       1KiB time=00:00:00.76 bitrate=   6.6kbits/s speed=0.104x elapsed=0:00:07.35    \nframe=   49 fps=6.2 q=56.0 size=       1KiB time=00:00:00.81 bitrate=   6.2kbits/s speed=0.103x elapsed=0:00:07.90    \nframe=   53 fps=6.3 q=63.0 size=       1KiB time=00:00:00.88 bitrate=   5.7kbits/s speed=0.105x elapsed=0:00:08.44    \nframe=   55 fps=6.1 q=56.0 size=       1KiB time=00:00:00.91 bitrate=   5.5kbits/s speed=0.102x elapsed=0:00:09.00    \nframe=   59 fps=6.2 q=63.0 size=       1KiB time=00:00:00.96 bitrate=   5.2kbits/s speed=0.101x elapsed=0:00:09.53    \nframe=   61 fps=6.0 q=56.0 size=       1KiB time=00:00:01.01 bitrate=   5.0kbits/s speed= 0.1x elapsed=0:00:10.12    \nframe=   65 fps=6.1 q=63.0 size=       1KiB time=00:00:01.08 bitrate=   4.7kbits/s speed=0.101x elapsed=0:00:10.70    \nframe=   69 fps=6.1 q=63.0 size=       1KiB time=00:00:01.13 bitrate=   4.5kbits/s speed=0.101x elapsed=0:00:11.22    \nframe=   71 fps=6.0 q=63.0 size=       1KiB time=00:00:01.18 bitrate=   4.3kbits/s speed= 0.1x elapsed=0:00:11.78    \nframe=   73 fps=5.9 q=56.0 size=       1KiB time=00:00:01.21 bitrate=   4.2kbits/s speed=0.0988x elapsed=0:00:12.31    \nframe=   77 fps=6.0 q=63.0 size=       1KiB time=00:00:01.28 bitrate=   3.9kbits/s speed=0.0999x elapsed=0:00:12.84    \nframe=   79 fps=5.9 q=56.0 size=       1KiB time=00:00:01.30 bitrate=   3.9kbits/s speed=0.0971x elapsed=0:00:13.38    \nframe=   82 fps=5.9 q=63.0 size=       1KiB time=00:00:01.36 bitrate=   3.7kbits/s speed=0.0977x elapsed=0:00:13.98    \nframe=   85 fps=5.9 q=56.0 size=       1KiB time=00:00:01.41 bitrate=   3.6kbits/s speed=0.0976x elapsed=0:00:14.52    \nframe=   88 fps=5.8 q=63.0 size=       1KiB time=00:00:01.46 bitrate=   3.5kbits/s speed=0.0972x elapsed=0:00:15.08    \nframe=   90 fps=5.7 q=63.0 size=       1KiB time=00:00:01.50 bitrate=   3.4kbits/s speed=0.0958x elapsed=0:00:15.65    \nframe=   94 fps=5.8 q=63.0 size=       1KiB time=00:00:01.56 bitrate=   3.2kbits/s speed=0.0967x elapsed=0:00:16.20    \nframe=   96 fps=5.7 q=63.0 size=       1KiB time=00:00:01.60 bitrate=   3.2kbits/s speed=0.0952x elapsed=0:00:16.81    \nframe=  100 fps=5.8 q=63.0 size=       1KiB time=00:00:01.65 bitrate=   3.1kbits/s speed=0.0949x elapsed=0:00:17.38    \nframe=  102 fps=5.7 q=63.0 size=       1KiB time=00:00:01.70 bitrate=   3.0kbits/s speed=0.0945x elapsed=0:00:17.99    \nframe=  105 fps=5.6 q=63.0 size=       1KiB time=00:00:01.75 bitrate=   2.9kbits/s speed=0.0942x elapsed=0:00:18.58    \nframe=  108 fps=5.7 q=63.0 size=       1KiB time=00:00:01.80 bitrate=   2.8kbits/s speed=0.0942x elapsed=0:00:19.10    \nframe=  110 fps=5.6 q=63.0 size=       1KiB time=00:00:01.83 bitrate=   2.8kbits/s speed=0.093x elapsed=0:00:19.72    \nframe=  114 fps=5.6 q=63.0 size=       1KiB time=00:00:01.90 bitrate=   2.7kbits/s speed=0.0936x elapsed=0:00:20.29    \nframe=  116 fps=5.6 q=63.0 size=       1KiB time=00:00:01.93 bitrate=   2.6kbits/s speed=0.0927x elapsed=0:00:20.85    \nframe=  119 fps=5.6 q=63.0 size=       1KiB time=00:00:01.98 bitrate=   2.6kbits/s speed=0.0926x elapsed=0:00:21.41    \nframe=  121 fps=5.5 q=56.0 size=       1KiB time=00:00:02.00 bitrate=   2.5kbits/s speed=0.0912x elapsed=0:00:21.92    \nframe=  125 fps=5.6 q=63.0 size=       1KiB time=00:00:02.08 bitrate=   2.4kbits/s speed=0.0927x elapsed=0:00:22.47    \nframe=  128 fps=5.6 q=63.0 size=       1KiB time=00:00:02.11 bitrate=   2.4kbits/s speed=0.092x elapsed=0:00:22.99    \nframe=  130 fps=5.5 q=63.0 size=     256KiB time=00:00:02.16 bitrate= 967.9kbits/s speed=0.092x elapsed=0:00:23.55    \nframe=  134 fps=5.6 q=63.0 size=     256KiB time=00:00:02.23 bitrate= 939.0kbits/s speed=0.0927x elapsed=0:00:24.08    \nframe=  136 fps=5.5 q=63.0 size=     256KiB time=00:00:02.26 bitrate= 925.2kbits/s speed=0.0919x elapsed=0:00:24.66    \nframe=  140 fps=5.6 q=63.0 size=     256KiB time=00:00:02.33 bitrate= 898.8kbits/s speed=0.0925x elapsed=0:00:25.22    \nframe=  142 fps=5.5 q=63.0 size=     256KiB time=00:00:02.36 bitrate= 886.1kbits/s speed=0.0918x elapsed=0:00:25.78    \nframe=  145 fps=5.5 q=63.0 size=     256KiB time=00:00:02.41 bitrate= 867.8kbits/s speed=0.0919x elapsed=0:00:26.29    \nframe=  148 fps=5.5 q=63.0 size=     256KiB time=00:00:02.46 bitrate= 850.2kbits/s speed=0.0919x elapsed=0:00:26.82    \nframe=  151 fps=5.5 q=63.0 size=     256KiB time=00:00:02.50 bitrate= 838.9kbits/s speed=0.0912x elapsed=0:00:27.41    \nframe=  153 fps=5.4 q=56.0 size=     256KiB time=00:00:02.55 bitrate= 822.4kbits/s speed=0.0908x elapsed=0:00:28.08    \nframe=  156 fps=5.4 q=63.0 size=     256KiB time=00:00:02.60 bitrate= 806.6kbits/s speed=0.0908x elapsed=0:00:28.63    \nframe=  160 fps=5.5 q=63.0 size=     256KiB time=00:00:02.65 bitrate= 791.4kbits/s speed=0.0908x elapsed=0:00:29.17    \nframe=  163 fps=5.5 q=63.0 size=     256KiB time=00:00:02.71 bitrate= 772.0kbits/s speed=0.0913x elapsed=0:00:29.74    \nframe=  166 fps=5.5 q=63.0 size=     256KiB time=00:00:02.76 bitrate= 758.0kbits/s speed=0.0914x elapsed=0:00:30.25    \nframe=  169 fps=5.5 q=63.0 size=     256KiB time=00:00:02.81 bitrate= 744.6kbits/s speed=0.0915x elapsed=0:00:30.77    \nframe=  172 fps=5.5 q=63.0 size=     256KiB time=00:00:02.86 bitrate= 731.6kbits/s speed=0.0915x elapsed=0:00:31.32    \nframe=  176 fps=5.5 q=63.0 size=     256KiB time=00:00:02.91 bitrate= 719.0kbits/s speed=0.0915x elapsed=0:00:31.88    \nframe=  179 fps=5.5 q=63.0 size=     256KiB time=00:00:02.98 bitrate= 703.0kbits/s speed=0.092x elapsed=0:00:32.41    \nframe=  182 fps=5.5 q=63.0 size=     256KiB time=00:00:03.03 bitrate= 691.4kbits/s speed=0.092x elapsed=0:00:32.95    \nframe=  188 fps=5.6 q=63.0 size=     256KiB time=00:00:03.13 bitrate= 669.3kbits/s speed=0.0936x elapsed=0:00:33.48    \nframe=  191 fps=5.6 q=63.0 size=     256KiB time=00:00:03.18 bitrate= 658.8kbits/s speed=0.0934x elapsed=0:00:34.06    \nframe=  194 fps=5.6 q=63.0 size=     256KiB time=00:00:03.23 bitrate= 648.6kbits/s speed=0.0934x elapsed=0:00:34.61    \nframe=  199 fps=5.7 q=63.0 size=     256KiB time=00:00:03.31 bitrate= 632.3kbits/s speed=0.0942x elapsed=0:00:35.19    \nframe=  200 fps=5.6 q=63.0 size=     256KiB time=00:00:03.33 bitrate= 629.1kbits/s speed=0.0932x elapsed=0:00:35.76    \nframe=  203 fps=5.6 q=63.0 size=     256KiB time=00:00:03.38 bitrate= 619.8kbits/s speed=0.0932x elapsed=0:00:36.31    \nframe=  206 fps=5.6 q=63.0 size=     256KiB time=00:00:03.43 bitrate= 610.8kbits/s speed=0.0932x elapsed=0:00:36.85    \nframe=  209 fps=5.6 q=63.0 size=     256KiB time=00:00:03.48 bitrate= 602.1kbits/s speed=0.093x elapsed=0:00:37.43    \nframe=  212 fps=5.6 q=63.0 size=     256KiB time=00:00:03.53 bitrate= 593.5kbits/s speed=0.0929x elapsed=0:00:38.02    \nframe=  215 fps=5.6 q=63.0 size=     256KiB time=00:00:03.58 bitrate= 585.3kbits/s speed=0.0928x elapsed=0:00:38.61    \nframe=  218 fps=5.6 q=63.0 size=     256KiB time=00:00:03.63 bitrate= 577.2kbits/s speed=0.0927x elapsed=0:00:39.19    \nframe=  222 fps=5.6 q=63.0 size=     256KiB time=00:00:03.68 bitrate= 569.4kbits/s speed=0.0926x elapsed=0:00:39.79    \nframe=  224 fps=5.5 q=63.0 size=     256KiB time=00:00:03.73 bitrate= 561.7kbits/s speed=0.0923x elapsed=0:00:40.43    \nframe=  227 fps=5.5 q=63.0 size=     256KiB time=00:00:03.78 bitrate= 554.3kbits/s speed=0.0921x elapsed=0:00:41.06    \nframe=  230 fps=5.5 q=63.0 size=     256KiB time=00:00:03.83 bitrate= 547.1kbits/s speed=0.0921x elapsed=0:00:41.62    \nframe=  234 fps=5.5 q=63.0 size=     256KiB time=00:00:03.88 bitrate= 540.0kbits/s speed=0.0921x elapsed=0:00:42.16    \nframe=  236 fps=5.5 q=63.0 size=     256KiB time=00:00:03.93 bitrate= 533.2kbits/s speed=0.092x elapsed=0:00:42.73    \nframe=  241 fps=5.6 q=63.0 size=     256KiB time=00:00:04.01 bitrate= 522.1kbits/s speed=0.0929x elapsed=0:00:43.25    \nframe=  244 fps=5.6 q=63.0 size=     256KiB time=00:00:04.06 bitrate= 515.7kbits/s speed=0.0929x elapsed=0:00:43.79    \nframe=  248 fps=5.6 q=63.0 size=     256KiB time=00:00:04.13 bitrate= 507.4kbits/s speed=0.0932x elapsed=0:00:44.34    \nframe=  253 fps=5.6 q=63.0 size=     256KiB time=00:00:04.21 bitrate= 497.3kbits/s speed=0.094x elapsed=0:00:44.87    \nframe=  256 fps=5.6 q=63.0 size=     256KiB time=00:00:04.26 bitrate= 491.5kbits/s speed=0.094x elapsed=0:00:45.40    \nframe=  262 fps=5.7 q=63.0 size=     768KiB time=00:00:04.36 bitrate=1440.8kbits/s speed=0.0951x elapsed=0:00:45.92    \nframe=  268 fps=5.8 q=63.0 size=     768KiB time=00:00:04.46 bitrate=1408.5kbits/s speed=0.0962x elapsed=0:00:46.44    \nframe=  273 fps=5.8 q=63.0 size=     768KiB time=00:00:04.55 bitrate=1382.7kbits/s speed=0.0968x elapsed=0:00:46.99    \nframe=  276 fps=5.8 q=63.0 size=     768KiB time=00:00:04.60 bitrate=1367.7kbits/s speed=0.0968x elapsed=0:00:47.53    \nframe=  276 fps=5.7 q=63.0 size=     768KiB time=00:00:04.60 bitrate=1367.7kbits/s speed=0.0955x elapsed=0:00:48.15    \nframe=  276 fps=5.7 q=63.0 size=     768KiB time=00:00:04.60 bitrate=1367.7kbits/s speed=0.0944x elapsed=0:00:48.74    \nframe=  276 fps=5.6 q=63.0 size=     768KiB time=00:00:04.60 bitrate=1367.7kbits/s speed=0.0934x elapsed=0:00:49.27    \nframe=  276 fps=5.5 q=63.0 size=     768KiB time=00:00:04.60 bitrate=1367.7kbits/s speed=0.0923x elapsed=0:00:49.81    \nframe=  276 fps=5.5 q=63.0 size=     768KiB time=00:00:04.60 bitrate=1367.7kbits/s speed=0.0913x elapsed=0:00:50.37    \nframe=  300 fps=5.9 q=63.0 size=     768KiB time=00:00:04.60 bitrate=1367.7kbits/s speed=0.0904x elapsed=0:00:50.89    \n[out#0/webm @ 0000019898ff9100] video:988KiB audio:0KiB subtitle:0KiB other streams:0KiB global headers:0KiB muxing overhead: 0.279417%\nframe=  300 fps=5.9 q=63.0 Lsize=     990KiB time=00:00:05.00 bitrate=1622.7kbits/s speed=0.0982x elapsed=0:00:50.90    \n",
  "seconds": 51.2555034160614,
  "probe_out": {}
}